<?xml version="1.0" encoding="UTF-8" standalone="no"?>
<svg
   xmlns:dc="http://purl.org/dc/elements/1.1/"
   xmlns:cc="http://creativecommons.org/ns#"
   xmlns:rdf="http://www.w3.org/1999/02/22-rdf-syntax-ns#"
   xmlns:svg="http://www.w3.org/2000/svg"
   xmlns="http://www.w3.org/2000/svg"
   xmlns:sodipodi="http://sodipodi.sourceforge.net/DTD/sodipodi-0.dtd"
   xmlns:inkscape="http://www.inkscape.org/namespaces/inkscape"
   width="70"
   height="70"
   viewBox="0 0 70 70"
   version="1.1"
   id="svg838"
   inkscape:version="1.0 (262b4497e3, 2020-09-04)"
   sodipodi:docname="poison.svg">
  <defs
     id="defs832" />
  <sodipodi:namedview
     id="base"
     pagecolor="#ffffff"
     bordercolor="#666666"
     borderopacity="1.0"
     inkscape:pageopacity="0.0"
     inkscape:pageshadow="2"
     inkscape:zoom="7.54"
     inkscape:cx="52.278139"
     inkscape:cy="39.683036"
     inkscape:document-units="px"
     inkscape:current-layer="layer1"
     inkscape:document-rotation="0"
     showgrid="false"
     inkscape:snap-others="true"
     inkscape:snap-global="true"
     units="px"
     inkscape:window-width="1536"
     inkscape:window-height="800"
     inkscape:window-x="0"
     inkscape:window-y="27"
     inkscape:window-maximized="1"
     inkscape:snap-center="true"
     inkscape:snap-object-midpoints="true" />
  <metadata
     id="metadata835">
    <rdf:RDF>
      <cc:Work
         rdf:about="">
        <dc:format>image/svg+xml</dc:format>
        <dc:type
           rdf:resource="http://purl.org/dc/dcmitype/StillImage" />
        <dc:title></dc:title>
      </cc:Work>
    </rdf:RDF>
  </metadata>
  <g
     inkscape:label="Layer 1"
     inkscape:groupmode="layer"
     id="layer1">
    <path
       id="path1401"
       style="fill:#d71919;fill-opacity:1;stroke:none;stroke-width:0.0616445;stroke-linecap:round;stroke-linejoin:round"
       transform="translate(-1.8686568,-3.7756668)"
       d="m 17.26463,19.897082 c -0.183074,0.159974 -4.018544,-3.903202 -4.224073,-3.769211 -0.20553,0.133992 2.029959,5.673916 1.801219,5.766146 -0.228739,0.09223 -2.676888,-5.793029 -2.91106,-5.734651 -0.234172,0.05838 -0.10164,5.942524 -0.347849,5.941669 -0.24621,-8.55e-4 -0.529713,-5.772599 -0.771338,-5.809327 -0.241625,-0.03673 -2.1532887,5.82802 -2.3815223,5.740661 C 8.2017732,21.945009 9.9022692,16.319316 9.6928189,16.200428 9.4833686,16.08154 5.3584664,20.749811 5.1717667,20.588716 4.985067,20.427621 8.8454095,15.249773 8.6794402,15.065898 8.5134709,14.882022 3.3992941,18.407634 3.2778201,18.198186 3.1563461,17.988739 8.3112066,14.76387 8.2188684,14.536932 8.1265301,14.309995 2.3527916,15.373793 2.3050168,15.132117 2.257242,14.890442 8.1123078,13.403627 8.1154367,13.156464 8.1185656,12.909302 2.1135977,11.98685 2.1506339,11.746496 2.18767,11.506142 8.2480591,12.461427 8.3239483,12.226963 8.3998375,11.9925 2.8326226,9.042805 2.954459,8.829595 3.0762953,8.616385 8.4789958,11.196741 8.6250939,11.004654 8.771192,10.812568 4.9052743,6.0840304 5.0927745,5.9248512 5.2802747,5.7656719 9.2453665,10.32248 9.446471,10.183809 9.6475756,10.045137 7.348724,4.3859585 7.5721462,4.2878014 7.7955684,4.1896444 10.275959,9.776824 10.51458,9.7175335 c 0.238621,-0.05929 0.133032,-5.6501999 0.379823,-5.6679105 0.246792,-0.017711 0.462933,5.8161148 0.70799,5.8404872 0.245057,0.024372 2.17879,-5.598132 2.412887,-5.5181398 0.234097,0.079992 -1.731621,5.6894026 -1.520052,5.8040036 0.211569,0.114601 4.470117,-4.7783489 4.658436,-4.6234032 0.188318,0.1549457 -3.530909,5.2850982 -3.37744,5.4706912 0.153469,0.185593 5.13499,-2.7398308 5.270776,-2.5382874 0.135786,0.2015433 -4.867954,3.1325284 -4.778831,3.3554454 0.08912,0.222917 5.734006,-0.635587 5.793976,-0.39647 0.05997,0.239117 -5.756728,1.565384 -5.753892,1.808099 0.0028,0.242714 5.939224,0.690855 5.907665,0.933173 -0.03156,0.242317 -6.000667,-0.541702 -6.084803,-0.308592 -0.08414,0.233111 5.395033,3.445014 5.27122,3.657583 -0.123812,0.212568 -5.427596,-2.694703 -5.572376,-2.500946 -0.144779,0.193758 3.617745,4.703842 3.434671,4.863815 z" />
    <path
       id="path1401-3"
       style="fill:#400808;fill-opacity:1;stroke:none;stroke-width:0.0355145;stroke-linecap:round;stroke-linejoin:round"
       d="m 12.367248,12.516119 c 0,0.185861 -2.13545,-1.738333 -2.25032,-1.661875 -0.114869,0.07647 1.434511,3.335128 1.305121,3.388682 -0.129392,0.05355 -1.7460056,-3.01496 -1.8818073,-2.989332 -0.1358016,0.02562 0.2186093,3.074658 0.081001,3.085594 -0.1376098,0.01096 -0.4227274,-3.167295 -0.5606636,-3.182772 -0.1379358,-0.01548 -1.2364547,3.274671 -1.3645817,3.223677 -0.128127,-0.05099 0.8074193,-3.297808 0.6885618,-3.368167 -0.1188576,-0.07036 -1.359382,1.317787 -1.4705542,1.230015 -0.1111726,-0.08777 1.2156333,-1.460679 1.1277119,-1.573425 -0.087921,-0.112743 -3.1192835,1.644611 -3.1865364,1.52112 C 4.7879283,12.066144 7.5616078,10.105485 7.5058571,9.9742207 7.4501064,9.842956 4.0769591,10.579037 4.0546446,10.439071 4.0323299,10.299107 7.2548369,9.55111 7.2497649,9.4079161 7.2446924,9.2647203 4.288,8.7340256 4.3034243,8.5934152 4.3188484,8.4528048 7.4379635,8.7536781 7.4839426,8.6180819 7.5299218,8.4824859 4.3716938,6.9667556 4.4375469,6.8405575 4.5033999,6.7143595 7.5690108,8.2591707 7.6578944,8.1513868 7.746778,8.0436022 5.7419795,5.3480971 5.8393231,5.2492416 5.9366667,5.1503863 8.0634195,7.5542283 8.1768165,7.4744164 8.2902134,7.3946045 7.1998236,4.1595324 7.3277008,4.1022892 7.4555781,4.0450459 8.871682,7.4757114 9.0079021,7.4440205 c 0.1362195,-0.031691 -0.086282,-3.602346 0.049755,-3.6038418 0.1360377,-0.00149 0.3629501,3.5874403 0.497959,3.6143559 0.1350098,0.026915 1.2250859,-3.3971135 1.3590669,-3.3568927 0.133978,0.040221 -0.808838,3.259088 -0.688568,3.3295755 0.120269,0.070488 2.192324,-2.4842678 2.298479,-2.3917643 0.106156,0.092503 -2.111125,2.7907784 -2.023679,2.8990222 0.08744,0.1082436 2.98541,-1.1465876 3.054238,-1.0212763 0.06883,0.1253112 -2.495785,1.4539875 -2.45033,1.5903156 0.04546,0.1363281 3.109222,-0.421802 3.136847,-0.2831582 0.02763,0.1386445 -3.212384,0.8386246 -3.21024,0.9826795 0.0022,0.1440529 2.615303,0.6016443 2.590923,0.7406397 -0.02438,0.1389964 -2.453769,-0.2213023 -2.495616,-0.084035 -0.04185,0.1372807 2.930931,1.8609434 2.870172,1.9875754 -0.06076,0.126634 -3.357352,-1.50593 -3.447171,-1.395625 -0.08982,0.110311 1.81751,1.837073 1.81751,2.064515 z"
       sodipodi:nodetypes="ssssssssssssssssssssssssssssssssssssss" />
  </g>
</svg>
