<?xml version="1.0" encoding="UTF-8"?>
<svg xmlns="http://www.w3.org/2000/svg" xmlns:xlink="http://www.w3.org/1999/xlink" width="20pt" height="20pt" viewBox="0 0 20 20" version="1.1">
<g id="surface1">
<path style=" stroke:none;fill-rule:nonzero;fill:rgb(0%,0%,0%);fill-opacity:1;" d="M 11.429688 6.785156 C 11.429688 5.996094 10.789062 5.355469 10 5.355469 C 9.210938 5.355469 8.570312 5.996094 8.570312 6.785156 C 8.570312 7.574219 9.210938 8.214844 10 8.214844 C 10.789062 8.214844 11.429688 7.574219 11.429688 6.785156 Z M 9.285156 6.785156 C 9.285156 6.390625 9.605469 6.070312 10 6.070312 C 10.394531 6.070312 10.714844 6.390625 10.714844 6.785156 C 10.714844 7.179688 10.394531 7.5 10 7.5 C 9.605469 7.5 9.285156 7.179688 9.285156 6.785156 Z M 9.285156 6.785156 "/>
<path style=" stroke:none;fill-rule:nonzero;fill:rgb(0%,0%,0%);fill-opacity:1;" d="M 12.320312 8.570312 C 10.84375 8.570312 9.644531 9.773438 9.644531 11.25 C 9.644531 12.726562 10.84375 13.929688 12.320312 13.929688 C 13.796875 13.929688 15 12.726562 15 11.25 C 15 9.773438 13.796875 8.570312 12.320312 8.570312 Z M 12.320312 13.214844 C 11.238281 13.214844 10.355469 12.332031 10.355469 11.25 C 10.355469 10.167969 11.238281 9.285156 12.320312 9.285156 C 13.40625 9.285156 14.285156 10.167969 14.285156 11.25 C 14.285156 12.332031 13.40625 13.214844 12.320312 13.214844 Z M 12.320312 13.214844 "/>
<path style=" stroke:none;fill-rule:nonzero;fill:rgb(0%,0%,0%);fill-opacity:1;" d="M 18.574219 8.570312 L 17 8.570312 C 16.816406 7.679688 16.460938 6.820312 15.960938 6.0625 L 17.074219 4.949219 C 17.34375 4.679688 17.492188 4.320312 17.488281 3.9375 C 17.488281 3.554688 17.339844 3.199219 17.070312 2.929688 C 16.515625 2.371094 15.609375 2.371094 15.050781 2.925781 L 13.9375 4.039062 C 13.179688 3.539062 12.320312 3.183594 11.429688 3 L 11.429688 1.425781 C 11.429688 0.640625 10.789062 0 10 0 C 9.210938 0 8.570312 0.640625 8.570312 1.425781 L 8.570312 3 C 7.679688 3.183594 6.820312 3.539062 6.0625 4.039062 L 4.949219 2.925781 C 4.679688 2.660156 4.320312 2.511719 3.941406 2.511719 C 3.9375 2.511719 3.9375 2.511719 3.9375 2.511719 C 3.554688 2.511719 3.199219 2.660156 2.929688 2.929688 C 2.660156 3.199219 2.511719 3.558594 2.511719 3.9375 C 2.511719 4.320312 2.660156 4.679688 2.925781 4.949219 L 4.039062 6.0625 C 3.539062 6.820312 3.183594 7.679688 3 8.570312 L 1.425781 8.570312 C 0.640625 8.570312 0 9.210938 0 10 C 0 10.789062 0.640625 11.429688 1.425781 11.429688 L 3 11.429688 C 3.183594 12.320312 3.539062 13.179688 4.039062 13.9375 L 2.925781 15.050781 C 2.65625 15.320312 2.511719 15.679688 2.511719 16.0625 C 2.511719 16.445312 2.660156 16.800781 2.929688 17.070312 C 3.484375 17.628906 4.390625 17.628906 4.949219 17.074219 L 6.0625 15.960938 C 6.820312 16.460938 7.679688 16.816406 8.570312 17 L 8.570312 18.574219 C 8.570312 19.359375 9.210938 20 10 20 C 10.789062 20 11.429688 19.359375 11.429688 18.574219 L 11.429688 17 C 12.320312 16.816406 13.179688 16.460938 13.9375 15.960938 L 15.050781 17.074219 C 15.320312 17.339844 15.679688 17.488281 16.058594 17.488281 C 16.0625 17.488281 16.0625 17.488281 16.0625 17.488281 C 16.445312 17.488281 16.800781 17.339844 17.070312 17.070312 C 17.339844 16.800781 17.488281 16.441406 17.488281 16.0625 C 17.488281 15.679688 17.339844 15.320312 17.074219 15.050781 L 15.960938 13.9375 C 16.460938 13.179688 16.816406 12.320312 17 11.429688 L 18.574219 11.429688 C 19.359375 11.429688 20 10.789062 20 10 C 20 9.210938 19.359375 8.570312 18.574219 8.570312 Z M 18.574219 10.714844 L 16.703125 10.714844 C 16.527344 10.714844 16.375 10.84375 16.347656 11.015625 C 16.191406 12.003906 15.796875 12.957031 15.207031 13.769531 C 15.105469 13.914062 15.121094 14.109375 15.242188 14.234375 L 16.566406 15.558594 C 16.703125 15.691406 16.777344 15.871094 16.773438 16.0625 C 16.773438 16.25 16.699219 16.429688 16.566406 16.566406 C 16.429688 16.699219 16.253906 16.773438 16.0625 16.773438 C 16.0625 16.773438 16.0625 16.773438 16.058594 16.773438 C 15.871094 16.773438 15.691406 16.703125 15.558594 16.566406 L 14.234375 15.242188 C 14.109375 15.117188 13.914062 15.105469 13.769531 15.207031 C 12.957031 15.796875 12.003906 16.191406 11.015625 16.347656 C 10.84375 16.375 10.714844 16.527344 10.714844 16.703125 L 10.714844 18.574219 C 10.714844 18.964844 10.394531 19.285156 10 19.285156 C 9.605469 19.285156 9.285156 18.964844 9.285156 18.574219 L 9.285156 16.703125 C 9.285156 16.527344 9.15625 16.375 8.984375 16.347656 C 7.996094 16.191406 7.042969 15.796875 6.230469 15.207031 C 6.167969 15.160156 6.09375 15.140625 6.019531 15.140625 C 5.925781 15.140625 5.835938 15.175781 5.765625 15.242188 L 4.441406 16.566406 C 4.164062 16.84375 3.710938 16.84375 3.433594 16.566406 C 3.300781 16.429688 3.226562 16.25 3.226562 16.0625 C 3.226562 15.871094 3.296875 15.691406 3.433594 15.558594 L 4.757812 14.234375 C 4.882812 14.109375 4.894531 13.914062 4.792969 13.769531 C 4.203125 12.957031 3.808594 12.003906 3.652344 11.015625 C 3.625 10.84375 3.472656 10.714844 3.296875 10.714844 L 1.425781 10.714844 C 1.035156 10.714844 0.714844 10.394531 0.714844 10 C 0.714844 9.605469 1.035156 9.285156 1.425781 9.285156 L 3.296875 9.285156 C 3.472656 9.285156 3.625 9.15625 3.652344 8.984375 C 3.808594 7.996094 4.203125 7.042969 4.792969 6.230469 C 4.894531 6.085938 4.882812 5.890625 4.757812 5.765625 L 3.433594 4.441406 C 3.296875 4.308594 3.222656 4.128906 3.226562 3.9375 C 3.226562 3.75 3.300781 3.570312 3.433594 3.433594 C 3.570312 3.300781 3.746094 3.226562 3.9375 3.226562 C 3.9375 3.226562 3.941406 3.226562 3.941406 3.226562 C 4.128906 3.226562 4.308594 3.296875 4.441406 3.433594 L 5.765625 4.757812 C 5.890625 4.882812 6.085938 4.894531 6.230469 4.792969 C 7.042969 4.203125 7.996094 3.808594 8.984375 3.652344 C 9.15625 3.625 9.285156 3.472656 9.285156 3.296875 L 9.285156 1.425781 C 9.285156 1.035156 9.605469 0.714844 10 0.714844 C 10.394531 0.714844 10.714844 1.035156 10.714844 1.425781 L 10.714844 3.296875 C 10.714844 3.472656 10.84375 3.625 11.015625 3.652344 C 12.003906 3.808594 12.957031 4.203125 13.769531 4.792969 C 13.914062 4.898438 14.109375 4.882812 14.234375 4.757812 L 15.558594 3.433594 C 15.835938 3.15625 16.289062 3.15625 16.566406 3.433594 C 16.699219 3.570312 16.773438 3.75 16.773438 3.9375 C 16.777344 4.128906 16.703125 4.308594 16.566406 4.441406 L 15.242188 5.765625 C 15.117188 5.890625 15.105469 6.085938 15.207031 6.230469 C 15.796875 7.042969 16.191406 7.996094 16.347656 8.984375 C 16.375 9.15625 16.527344 9.285156 16.703125 9.285156 L 18.574219 9.285156 C 18.964844 9.285156 19.285156 9.605469 19.285156 10 C 19.285156 10.394531 18.964844 10.714844 18.574219 10.714844 Z M 18.574219 10.714844 "/>
<path style=" stroke:none;fill-rule:nonzero;fill:rgb(0%,0%,0%);fill-opacity:1;" d="M 6.605469 9.285156 C 5.523438 9.285156 4.644531 10.167969 4.644531 11.25 C 4.644531 12.332031 5.523438 13.214844 6.605469 13.214844 C 7.691406 13.214844 8.570312 12.332031 8.570312 11.25 C 8.570312 10.167969 7.691406 9.285156 6.605469 9.285156 Z M 6.605469 12.5 C 5.917969 12.5 5.355469 11.9375 5.355469 11.25 C 5.355469 10.5625 5.917969 10 6.605469 10 C 7.296875 10 7.855469 10.5625 7.855469 11.25 C 7.855469 11.9375 7.296875 12.5 6.605469 12.5 Z M 6.605469 12.5 "/>
</g>
</svg>
