<?xml version="1.0" encoding="UTF-8" standalone="no"?>
<!-- Created with Inkscape (http://www.inkscape.org/) -->

<svg
   xmlns:dc="http://purl.org/dc/elements/1.1/"
   xmlns:cc="http://creativecommons.org/ns#"
   xmlns:rdf="http://www.w3.org/1999/02/22-rdf-syntax-ns#"
   xmlns:svg="http://www.w3.org/2000/svg"
   xmlns="http://www.w3.org/2000/svg"
   xmlns:sodipodi="http://sodipodi.sourceforge.net/DTD/sodipodi-0.dtd"
   xmlns:inkscape="http://www.inkscape.org/namespaces/inkscape"
   width="51.721806mm"
   height="36.388092mm"
   viewBox="0 0 183.26624 128.93418"
   id="svg4744"
   version="1.1"
   inkscape:version="0.91 r13725"
   sodipodi:docname="icon--botch-debug.svg">
  <defs
     id="defs4746" />
  <sodipodi:namedview
     id="base"
     pagecolor="#ffffff"
     bordercolor="#666666"
     borderopacity="1.0"
     inkscape:pageopacity="0.0"
     inkscape:pageshadow="2"
     inkscape:zoom="0.35"
     inkscape:cx="-360.50974"
     inkscape:cy="213.03852"
     inkscape:document-units="px"
     inkscape:current-layer="layer1"
     showgrid="false"
     fit-margin-top="0"
     fit-margin-left="0"
     fit-margin-right="0"
     fit-margin-bottom="0"
     inkscape:window-width="1868"
     inkscape:window-height="1051"
     inkscape:window-x="0"
     inkscape:window-y="0"
     inkscape:window-maximized="1" />
  <metadata
     id="metadata4749">
    <rdf:RDF>
      <cc:Work
         rdf:about="">
        <dc:format>image/svg+xml</dc:format>
        <dc:type
           rdf:resource="http://purl.org/dc/dcmitype/StillImage" />
        <dc:title></dc:title>
      </cc:Work>
    </rdf:RDF>
  </metadata>
  <g
     inkscape:label="Layer 1"
     inkscape:groupmode="layer"
     id="layer1"
     transform="translate(-74.081167,-616.46654)">
    <path
       d="m 119.25835,676.52358 c 0.555,0.455 1.3725,0.3745 1.82625,-0.17975 0.45625,-0.55325 0.37375,-1.37213 -0.17875,-1.82613 -9.48625,-11.26225 -19.8575,-12.39512 -33.366255,-13.42537 -0.715,-0.0527 -1.34,0.4825 -1.39375,1.19725 -0.015,0.20175 0.0175,0.3955 0.0875,0.57187 1.70625,5.11325 2.69375,8.88525 3.22625,12.13475 0.46,2.811 0.5775,5.24163 0.5225,7.82863 -2.69125,0.25487 -6.10375,0.2255 -8.39875,1.27287 -2.65375,1.21238 -5.0025,2.98838 -6.985,5.43113 -1.79,2.19737 1.50375,2.55725 3.24,1.20225 2.22625,-1.73925 5.44625,-3.5035 5.7275,-3.63038 2.315,-1.05712 4.91625,-1.61775 7.75125,-1.7725 l 0,-0.002 c 0.66,-0.0366 1.19625,-0.57075 1.2225,-1.24512 1.84,-7.36813 0.51,-11.75238 -3.25125,-20.22213 11.316255,1.21625 21.158755,5.4605 29.970005,12.66413 l 0,0"
       style="fill:#000000;fill-opacity:1;fill-rule:nonzero;stroke:none"
       id="path484"
       inkscape:connector-curvature="0" />
    <path
       d="m 141.9896,718.5377 c 0.66,0.188 1.35125,-0.19587 1.53875,-0.8575 0.18875,-0.66162 -0.195,-1.3525 -0.85625,-1.539 -6.42875,-1.836 -12.1725,-3.3985 -17.48,-3.61812 -5.30875,-0.21975 -10.18875,0.90475 -14.8125,1.68112 -0.6775,0.11575 -1.135,0.75875 -1.02,1.4365 0.0625,0.36625 0.2775,0.669 0.57125,0.85113 6.73125,4.70887 12.70375,9.75437 17.02125,16.85637 -2.35875,0.42088 -4.18125,1.87988 -5.6525,3.51225 -1.78375,1.98 -3.05375,4.21388 -3.71125,6.74163 -0.85875,3.30175 3.37,1.79787 5.92625,-2.39638 1.865,-3.05762 5.05125,-5.93612 5.70625,-6.30712 l 0.05,-0.0269 c 0.59875,-0.33937 0.80875,-1.09962 0.46875,-1.69925 -6.2375,-10.96437 -6.5725,-10.083 -15.925,-16.9595 3.55125,-0.455 7.27,-0.67137 11.25625,-0.50637 5.13,0.21337 10.70125,1.05712 16.91875,2.83112 l 0,0"
       style="fill:#000000;fill-opacity:1;fill-rule:nonzero;stroke:none"
       id="path486"
       inkscape:connector-curvature="0" />
    <path
       d="m 133.51835,697.67445 c 0.555,0.454 1.3725,0.3735 1.8275,-0.18212 0.455,-0.55525 0.3725,-1.37313 -0.1825,-1.82813 -5.26375,-4.30325 -10.37,-8.44387 -15.94375,-10.61337 -5.56875,-2.16888 -11.59,-2.35938 -17.405,-2.80363 -0.71625,-0.0523 -1.33875,0.48475 -1.39125,1.19963 -0.0175,0.20562 0.0175,0.40437 0.09,0.5825 3.09125,9.26425 5.86875,23.0015 5.44,32.74325 -3.8625,-1.69 -8.287505,-0.20563 -11.933755,2.2705 -7.5225,5.10987 -5.36875,6.33887 -2.94,5.77825 2.36875,-0.54538 4.9025,-2.8125 6.4775,-3.44725 3.172505,-1.27775 6.737505,-1.93363 9.682505,-2.09663 0.66,-0.0235 1.20625,-0.54687 1.245,-1.21975 0.91375,-15.43362 -0.33375,-18.84137 -4.91875,-33.0405 4.9025,0.52588 9.70625,1.63275 14.39875,3.4595 5.31,2.06775 10.49875,5.06588 15.55375,9.19775 l 0,0"
       style="fill:#000000;fill-opacity:1;fill-rule:nonzero;stroke:none"
       id="path488"
       inkscape:connector-curvature="0" />
    <path
       d="m 205.63335,696.16658 c -0.6225,0.50925 -1.54,0.418 -2.04875,-0.20513 -0.51,-0.622 -0.4175,-1.539 0.205,-2.04925 5.89875,-4.82275 11.6225,-9.46437 17.87125,-11.8955 6.2425,-2.43162 12.99125,-2.6455 19.51,-3.14262 0.8025,-0.0586 1.5,0.542 1.56,1.34425 0.0163,0.231 -0.0212,0.45262 -0.10125,0.65337 -3.465,10.38425 -6.57875,25.78213 -6.09875,36.70263 4.33,-1.8945 9.29,-0.231 13.3775,2.54487 8.4325,5.7275 6.0175,7.1045 3.295,6.47713 -2.655,-0.61138 -5.495,-3.15288 -7.26125,-3.86338 -3.55625,-1.43312 -7.55125,-2.16787 -10.85125,-2.351 -0.74125,-0.0269 -1.355,-0.61375 -1.39875,-1.36725 -1.0225,-17.29975 0.375,-21.12062 5.515,-37.03762 -5.495,0.59137 -10.87875,1.83262 -16.14,3.87987 -5.95125,2.317 -11.7675,5.67725 -17.43375,10.30963 l 0,0"
       style="fill:#000000;fill-opacity:1;fill-rule:nonzero;stroke:none"
       id="path490"
       inkscape:connector-curvature="0" />
    <path
       d="m 195.5621,711.15433 c -0.6425,0.38487 -1.47875,0.17637 -1.8625,-0.46725 -0.385,-0.643 -0.175,-1.478 0.4675,-1.86275 6.25125,-3.74663 11.8575,-7.01025 17.38375,-8.74175 5.5275,-1.727 10.9825,-1.92138 16.0675,-2.40725 0.7475,-0.0693 1.41,0.4785 1.48125,1.22462 0.0375,0.40438 -0.105,0.78225 -0.36125,1.05713 -5.76,6.858 -10.625,13.8535 -13.1675,22.54887 2.6025,-0.22212 4.93375,0.79925 6.9425,2.103 2.4375,1.58113 4.40375,3.57575 5.81,6.04988 1.83625,3.23475 -3.04125,2.84412 -6.915,-0.84913 -2.82625,-2.69437 -6.99375,-4.82425 -7.7875,-5.03175 l -0.06,-0.0138 c -0.725,-0.18887 -1.1625,-0.93012 -0.9725,-1.65675 3.47375,-13.30262 4.0725,-12.46925 11.98,-22.34862 -3.865,0.5225 -7.8425,1.34525 -11.9925,2.64312 -5.34125,1.67088 -10.96875,4.13088 -17.01375,7.75238 l 0,0"
       style="fill:#000000;fill-opacity:1;fill-rule:nonzero;stroke:none"
       id="path492"
       inkscape:connector-curvature="0" />
    <path
       d="m 205.4946,683.66945 c -0.2825,0.7505 -1.1225,1.13138 -1.8725,0.84825 -0.7525,-0.28175 -1.13125,-1.12212 -0.84875,-1.87262 2.89625,-16.24025 12.3225,-23.14938 24.85375,-31.71625 0.6625,-0.45175 1.5675,-0.28175 2.02,0.38087 0.1275,0.18788 0.205,0.3945 0.23625,0.603 1.20875,5.918 2.36375,10.13088 3.6675,13.5815 1.1275,2.98588 2.3775,5.40925 3.87875,7.88825 2.75375,-1.25987 6.0475,-3.19925 8.86,-3.46925 3.25625,-0.3115 6.52875,0.0961 9.82125,1.35588 2.96625,1.1295 -0.0263,3.32425 -2.47,2.981 -3.135,-0.4395 -7.24875,-0.34625 -7.59,-0.3135 -2.83875,0.272 -5.67875,1.18562 -8.51375,2.6235 l -0.001,-10e-4 c -0.66125,0.3345 -1.48125,0.11575 -1.88375,-0.524 -5.91375,-6.11913 -7.0775,-11.11813 -8.1725,-21.44138 -10.29875,7.51863 -17.47125,17.1485 -21.985,29.07613 l 0,0"
       style="fill:#000000;fill-opacity:1;fill-rule:nonzero;stroke:none"
       id="path494"
       inkscape:connector-curvature="0" />
    <path
       d="m 167.3921,636.18233 c 2.13875,1.65125 4.2775,3.3025 6.41625,4.9515 3.39125,-0.9415 6.7825,-1.884 10.1725,-2.82525 1.1925,2.14125 2.38375,4.28275 3.575,6.42487 4.3675,-2.23725 7.90125,-1.7685 11.1725,-0.439 0.17875,2.36038 0.35875,4.72275 0.5375,7.0835 5.4025,-0.86812 8.86,0.30863 11.6575,2.18513 -0.87,2.30075 -1.73625,4.602 -2.605,6.90325 5.11,0.4835 9.42375,1.72375 11.51375,5.088 -1.89625,1.95012 -3.79375,3.90137 -5.69125,5.8515 5.6475,1.71875 9.13375,4.48487 10.5325,8.26075 -3.3725,0.24262 -6.19625,1.583 -8.47,4.021 4.345,3.28125 7.27875,6.99225 8.47,11.23387 -3.51,0.34913 -7.0225,0.69825 -10.5325,1.04888 4.57125,3.94912 5.64875,8.42775 5.69375,13.06387 -3.61,-1.96675 -7.35625,-3.17725 -11.51375,-2.12637 4.15875,4.707 3.93625,9.41162 2.6025,14.11712 -3.88625,-1.67575 -7.77,-3.3515 -11.65625,-5.02875 1.24875,4.88375 1.5025,9.686 -0.5375,14.29788 -3.725,-2.55138 -7.44875,-5.104 -11.17375,-7.65538 -1.19125,4.54738 -2.3825,9.09325 -3.57375,13.64163 -3.39125,-3.34713 -6.7825,-6.69425 -10.17375,-10.0415 -2.13875,4.05525 -4.2775,8.11187 -6.41625,12.168 -2.82375,-4.05613 -5.64875,-8.11188 -8.47375,-12.1665 -2.70375,3.34662 -5.41,6.69287 -8.115,10.04 -3.2925,-4.07563 -4.81,-8.74263 -5.63125,-13.64013 -3.85,1.8125 -6.7725,4.47025 -9.115,7.65388 -2.29875,-4.19288 -2.39375,-9.26763 -2.59625,-14.29788 -3.68,0.53563 -7.0175,1.88813 -9.5975,5.02875 -1.19625,-4.63325 -0.86375,-9.34812 0.545,-14.11712 -3.83125,-0.13925 -6.72625,0.89112 -9.45625,2.12637 -0.6575,-4.27975 0.865,-8.64887 3.635,-13.06637 -2.825,-0.34813 -5.65,-0.69725 -8.475,-1.04488 1.01875,-4.3985 2.92625,-8.27887 6.4125,-11.23537 -2.1375,-1.34038 -4.275,-2.68063 -6.4125,-4.021 1.2975,-3.34088 3.61,-6.293 8.475,-8.26075 -1.2125,-1.95013 -2.42375,-3.90138 -3.63625,-5.85063 2.57375,-2.54387 5.9875,-3.85737 9.45625,-5.08787 -0.1825,-2.30225 -0.3625,-4.6035 -0.545,-6.90275 3.36125,-2.5015 6.5125,-2.70563 9.59875,-2.18663 0.865,-2.36075 1.73125,-4.72312 2.595,-7.0835 3.68875,-0.9375 6.66,-0.67762 9.11375,0.4405 1.8775,-2.14112 3.75625,-4.28387 5.63375,-6.42637 3.04,0.10125 5.76,1.01 8.115,2.82625 2.825,-1.65 5.65,-3.30125 8.47375,-4.9525 l 0,0"
       style="fill:#1d4f80;fill-opacity:1;fill-rule:evenodd;stroke:none"
       id="path496"
       inkscape:connector-curvature="0" />
    <path
       d="m 190.9571,643.47033 c 2.87625,-0.65338 5.3925,-0.14163 7.77125,0.82412 0.17875,2.36038 0.35875,4.72275 0.5375,7.0835 5.4025,-0.86812 8.86,0.30863 11.6575,2.18513 -0.87,2.30075 -1.73625,4.602 -2.605,6.90325 5.11,0.4835 9.42375,1.72375 11.51375,5.088 -1.89625,1.95012 -3.79375,3.90137 -5.69125,5.8515 5.6475,1.71875 9.13375,4.48487 10.5325,8.26075 -3.3725,0.24262 -6.19625,1.583 -8.47,4.021 4.345,3.28125 7.27875,6.99225 8.47,11.23387 -3.51,0.34913 -7.0225,0.69825 -10.5325,1.04888 4.57125,3.94912 5.64875,8.42775 5.69375,13.06387 -3.61,-1.96675 -7.35625,-3.17725 -11.51375,-2.12637 4.15875,4.707 3.93625,9.41162 2.6025,14.11712 -3.88625,-1.67575 -7.77,-3.3515 -11.65625,-5.02875 1.24875,4.88375 1.5025,9.686 -0.5375,14.29788 -3.725,-2.55138 -7.44875,-5.104 -11.17375,-7.65538 -1.19125,4.54738 -2.3825,9.09325 -3.57375,13.64163 -3.39125,-3.34713 -6.7825,-6.69425 -10.17375,-10.0415 -2.13875,4.05525 -4.2775,8.11187 -6.41625,12.168 -2.82375,-4.05613 -5.64875,-8.11188 -8.47375,-12.1665 -2.70375,3.34662 -5.41,6.69287 -8.115,10.04 -3.2925,-4.07563 -4.81,-8.74263 -5.63125,-13.64013 -3.85,1.8125 -6.7725,4.47025 -9.115,7.65388 -2.29875,-4.19288 -2.39375,-9.26763 -2.59625,-14.29788 -3.68,0.53563 -7.0175,1.88813 -9.5975,5.02875 -1.19625,-4.63325 -0.86375,-9.34812 0.545,-14.11712 -3.83125,-0.13925 -6.72625,0.89112 -9.45625,2.12637 -0.395,-2.57562 -0.002,-5.184 0.97875,-7.81487 0.0762,1.32662 0.27625,2.64887 0.61625,3.96087 2.30125,-2.79875 5.275,-4.00487 8.55375,-4.48237 0.1825,4.48537 0.26625,9.00787 2.315,12.74562 2.0875,-2.83787 4.6925,-5.2075 8.12375,-6.82225 0.73375,4.36525 2.08625,8.52388 5.02,12.15763 2.41125,-2.98338 4.8225,-5.96675 7.23375,-8.94863 2.5175,3.61325 5.035,7.228 7.5525,10.84225 1.90625,-3.61425 3.8125,-7.229 5.72,-10.84475 3.0225,2.98338 6.045,5.96675 9.0675,8.95113 1.06125,-4.05513 2.12375,-8.10788 3.185,-12.15763 3.32125,2.27238 6.64,4.54688 9.95875,6.82225 1.82125,-4.11037 1.595,-8.39112 0.48,-12.74562 3.46375,1.49412 6.92625,2.98825 10.39,4.48237 1.1875,-4.19375 1.38625,-8.38712 -2.32125,-12.583 3.70625,-0.936 7.04625,0.14313 10.26375,1.896 -0.0388,-4.13175 -1.00125,-8.125 -5.07375,-11.6455 3.12875,-0.3115 6.25875,-0.6225 9.3875,-0.9335 -1.0625,-3.78087 -3.6775,-7.08887 -7.55125,-10.01375 2.0275,-2.17287 4.545,-3.36662 7.55,-3.584 -1.24625,-3.36575 -4.35375,-5.83 -9.3875,-7.36325 1.69125,-1.73975 3.3825,-3.4765 5.07375,-5.21625 -1.86375,-2.99812 -5.70875,-4.104 -10.2625,-4.53375 0.77375,-2.05025 1.54625,-4.1025 2.32,-6.15337 -0.955,-0.641 -1.9975,-1.19038 -3.18875,-1.5795 l 0,0 z m -74.6625,52.21525 -6.1825,-0.76263 c 0.0913,-0.40037 0.19125,-0.79587 0.3,-1.1865 1.9275,-0.7285 4.035,-1.233 6.62,-1.13925 -0.305,1.03275 -0.55125,2.063 -0.7375,3.08838 l 0,0"
       style="fill:#174068;fill-opacity:1;fill-rule:evenodd;stroke:none"
       id="path498"
       inkscape:connector-curvature="0" />
    <path
       d="m 167.9321,635.48358 6.065,4.68125 9.74875,-2.7075 0.66875,-0.1875 0.33875,0.61 3.17,5.69787 c 2.01875,-0.917 3.88,-1.28662 5.63,-1.28412 1.9725,0.003 3.78125,0.4785 5.5075,1.18012 l 0.5075,0.20563 0.0425,0.54775 0.46625,6.14412 c 2.39625,-0.2945 4.42,-0.18462 6.185,0.2085 2.0125,0.44675 3.6725,1.25638 5.15125,2.25 l 0.5825,0.39063 -0.24625,0.65375 -2.20125,5.8365 c 2.195,0.26512 4.2275,0.69425 5.98875,1.39887 2.14625,0.85788 3.8925,2.12063 5.04625,3.977 l 0.365,0.5875 -0.4825,0.4955 -4.7075,4.83988 c 2.3175,0.82525 4.245,1.84575 5.78875,3.05912 1.88375,1.481 3.19875,3.248 3.9575,5.293 l 0.4075,1.102 -1.1775,0.0845 c -1.57375,0.11475 -3.02,0.48338 -4.33125,1.10588 -1.0325,0.48937 -1.9875,1.14025 -2.86625,1.94925 1.885,1.50787 3.48875,3.106 4.78625,4.80525 1.4925,1.9565 2.57375,4.04387 3.20125,6.27387 l 0.285,1.01325 -1.05,0.104 -8.6175,0.85838 c 1.5925,1.67912 2.6625,3.44425 3.3675,5.268 0.88875,2.30612 1.18375,4.6865 1.20625,7.10112 l 0.0137,1.5005 -1.3175,-0.71775 c -1.735,-0.94537 -3.4975,-1.708 -5.31625,-2.106 -1.34625,-0.2945 -2.73,-0.38825 -4.16125,-0.20512 1.565,2.11187 2.35375,4.2325 2.62125,6.3565 0.31625,2.49362 -0.0875,4.9585 -0.7825,7.40812 l -0.27375,0.97413 -0.92625,-0.39938 -10.05,-4.33687 c 0.3975,1.92625 0.61875,3.84612 0.59125,5.75687 -0.0362,2.50575 -0.50625,4.9755 -1.57625,7.391 l -0.43125,0.97413 -0.87625,-0.59913 -10.13875,-6.94725 -3.255,12.42338 -0.38875,1.481 -1.085,-1.07225 -9.3275,-9.20513 -5.86125,11.11325 -0.67875,1.28513 -0.83,-1.19138 -7.80125,-11.19962 -7.3725,9.122 -0.68875,0.852 -0.68875,-0.852 c -1.70625,-2.11275 -2.9525,-4.376 -3.87625,-6.74413 -0.775,-1.98 -1.3225,-4.03325 -1.7275,-6.12887 -1.43,0.7675 -2.7175,1.66112 -3.8875,2.663 -1.45,1.24175 -2.7225,2.65437 -3.85375,4.19337 l -0.82125,1.11725 -0.66625,-1.21487 c -2.24375,-4.09175 -2.47375,-8.88188 -2.66375,-13.685 -1.4,0.2695 -2.735,0.67812 -3.9775,1.2915 -1.51,0.74462 -2.89125,1.79387 -4.09625,3.26025 l -1.10125,1.34025 -0.435,-1.6835 c -0.6225,-2.40588 -0.845,-4.82775 -0.7325,-7.26325 0.0962,-2.05813 0.4325,-4.123 0.97125,-6.19488 -1.36125,0.0376 -2.60125,0.2335 -3.76125,0.52838 -1.48625,0.37987 -2.84875,0.92925 -4.17,1.52737 l -1.06125,0.48 -0.17875,-1.15537 c -0.3475,-2.2705 -0.12,-4.559 0.56,-6.86125 0.55375,-1.86863 1.405,-3.74363 2.49125,-5.62263 l -7.1225,-0.88037 -0.975,-0.1205 0.22125,-0.95613 c 0.525,-2.27487 1.28625,-4.42087 2.36625,-6.38525 0.9075,-1.648 2.03875,-3.1665 3.45,-4.52487 l -5.4225,-3.39988 -0.62,-0.38825 0.26375,-0.67775 c 0.68875,-1.772 1.65,-3.44575 3.0875,-4.93887 1.245,-1.2965 2.84,-2.44975 4.9175,-3.40925 l -3.0925,-4.9795 -0.37125,-0.59813 0.5025,-0.4975 c 1.3625,-1.34825 2.935,-2.36237 4.61625,-3.19825 1.44875,-0.72075 2.97625,-1.30862 4.52375,-1.86525 l -0.4925,-6.228 -0.0388,-0.48587 0.395,-0.2935 c 1.7975,-1.33638 3.5475,-2.063 5.26625,-2.38375 1.4575,-0.2725 2.87625,-0.25388 4.275,-0.0733 l 2.34875,-6.40775 0.16125,-0.438 0.45125,-0.11475 c 1.93125,-0.49063 3.68625,-0.66788 5.28625,-0.57463 1.37875,0.079 2.64125,0.35988 3.80125,0.813 l 5.2125,-5.94837 0.275,-0.315 0.4175,0.015 c 1.61375,0.055 3.1425,0.32125 4.575,0.815 1.2575,0.43375 2.44875,1.0425 3.5675,1.83625 l 7.9725,-4.66 0.44625,0.765 0.54,-0.69875 0,0 z m 5.3375,6.3495 -5.94375,-4.58575 -7.9625,4.65162 -0.51125,0.29938 -0.4725,-0.36525 c -1.09875,-0.84475 -2.2825,-1.482 -3.55,-1.917 -1.15125,-0.3975 -2.3675,-0.63 -3.6425,-0.70625 l -5.35375,6.10612 -0.4325,0.49413 -0.5975,-0.27338 c -1.1275,-0.51362 -2.37875,-0.831 -3.775,-0.91162 -1.29875,-0.0747 -2.72625,0.0548 -4.305,0.419 l -2.4325,6.63762 -0.25125,0.69 -0.725,-0.12212 c -1.45125,-0.24413 -2.91375,-0.31888 -4.3875,-0.043 -1.345,0.2515 -2.7225,0.79987 -4.14375,1.78225 l 0.50625,6.40925 0.0538,0.67475 -0.6425,0.227 c -1.70375,0.6055 -3.395,1.2305 -4.96375,2.01025 -1.3225,0.65825 -2.56125,1.42725 -3.6525,2.39262 l 3.2525,5.23438 0.55375,0.89362 -0.9725,0.393 c -2.31125,0.93513 -4.005,2.09625 -5.27,3.40963 -1.07875,1.12162 -1.8525,2.36425 -2.43625,3.68262 l 5.77875,3.62363 1.0225,0.6415 -0.91875,0.78037 c -1.655,1.40375 -2.93625,3.03125 -3.9275,4.82813 -0.84625,1.5405 -1.4825,3.209 -1.955,4.9765 l 7.48125,0.92437 1.38,0.16938 -0.73875,1.17925 c -1.3425,2.14112 -2.3825,4.26512 -3.0025,6.36225 -0.49125,1.66012 -0.71875,3.30812 -0.625,4.939 1.06,-0.44438 2.16125,-0.84225 3.34125,-1.144 1.61375,-0.41125 3.3775,-0.64463 5.39125,-0.57138 l 1.1375,0.0415 -0.3225,1.09038 c -0.68375,2.32025 -1.1075,4.62162 -1.2125,6.898 -0.0813,1.72262 0.0175,3.4325 0.32125,5.13075 1.075,-1.03025 2.24625,-1.82863 3.49625,-2.44475 1.70875,-0.84375 3.55,-1.34088 5.47625,-1.62013 l 0.97,-0.14162 0.0375,0.9815 0.0275,0.71037 c 0.16625,4.19288 0.33125,8.38775 1.85875,11.95563 0.98,-1.20513 2.055,-2.32675 3.24375,-3.34625 1.5625,-1.33788 3.32375,-2.5 5.32,-3.44088 l 1.05625,-0.49712 0.19375,1.15137 c 0.4,2.39263 0.9725,4.72663 1.84125,6.95175 0.73625,1.88525 1.68875,3.69675 2.93625,5.40663 l 7.40875,-9.1665 0.74125,-0.91738 0.67375,0.96625 7.64375,10.97313 5.7375,-10.88038 0.55625,-1.05325 0.845,0.835 9.08875,8.96825 3.18625,-12.16062 0.32,-1.21675 1.03375,0.708 10.265,7.03462 c 0.68875,-1.875 1,-3.77875 1.02875,-5.7055 0.0338,-2.296 -0.3325,-4.64462 -0.94125,-7.024 l -0.44625,-1.74412 1.655,0.71287 10.715,4.624 c 0.47375,-1.92375 0.7125,-3.83787 0.47375,-5.729 -0.27625,-2.1845 -1.1975,-4.37987 -3.1475,-6.58437 l -0.95875,-1.0875 1.40625,-0.35538 c 2.22125,-0.56162 4.33125,-0.52012 6.3625,-0.0757 1.51625,0.33113 2.9875,0.88863 4.42875,1.586 -0.11125,-1.709 -0.4125,-3.38287 -1.03625,-4.99762 -0.795,-2.0645 -2.1325,-4.05275 -4.2975,-5.92525 l -1.55375,-1.34275 2.04625,-0.20363 9.44375,-0.9405 c -0.585,-1.63675 -1.45375,-3.19037 -2.58125,-4.66987 -1.375,-1.80075 -3.13875,-3.49363 -5.24875,-5.08688 l -0.78125,-0.59237 0.6675,-0.71625 c 1.21375,-1.30038 2.58,-2.311 4.09375,-3.02975 1.16,-0.55088 2.40375,-0.92775 3.73,-1.13288 -0.6675,-1.29787 -1.64125,-2.45212 -2.92625,-3.46187 -1.66875,-1.3135 -3.85625,-2.38525 -6.56875,-3.212 l -1.3875,-0.42238 1.01,-1.037 5.185,-5.33012 c -0.93,-1.2095 -2.23875,-2.08013 -3.8125,-2.71 -1.89125,-0.75538 -4.1675,-1.16888 -6.64375,-1.40325 l -1.15125,-0.10988 0.40875,-1.08062 2.35,-6.23538 c -1.16375,-0.70887 -2.455,-1.28162 -3.9625,-1.61612 -1.78625,-0.398 -3.89375,-0.46875 -6.47625,-0.0537 l -0.9475,0.15287 -0.0737,-0.9585 -0.495,-6.52837 c -1.38625,-0.5175 -2.81875,-0.8545 -4.335,-0.85688 -1.705,-0.004 -3.54875,0.41163 -5.59625,1.46088 l -0.75875,0.38875 -0.41375,-0.74463 -3.2375,-5.81887 -9.5025,2.63962 -0.425,0.11863 -0.35,-0.27 0,0"
       style="fill:#000000;fill-opacity:1;fill-rule:nonzero;stroke:none"
       id="path500"
       inkscape:connector-curvature="0" />
    <path
       d="m 132.01085,693.35408 c -0.26,-0.46725 -0.0913,-1.05813 0.375,-1.31838 0.46625,-0.25825 1.0575,-0.0902 1.31625,0.3775 3.18625,5.71438 8.64,9.82325 15.09,11.90763 4.1725,1.34825 8.76,1.84862 13.42125,1.39162 l 0.0163,-10e-4 c 4.65875,-0.45887 9.3925,-1.87887 13.86,-4.36762 3.665,-2.0425 7.15,-4.80863 10.27,-8.35938 l 0.0613,-0.13912 c 0.0987,-0.23338 0.27875,-0.40775 0.49375,-0.503 3.83625,-4.54738 7.0875,-10.31875 9.3875,-17.43988 0.16375,-0.50925 0.71,-0.79012 1.21875,-0.628 0.51,0.16413 0.79,0.711 0.6275,1.21825 -3.3025,10.21788 -14.48,29.07138 -23.90125,34.32275 -3.87125,2.15825 -8.0125,3.2725 -12.05875,3.47413 -4.0475,0.20025 -8.0025,-0.51413 -11.49875,-2.01413 -5.05,-2.1655 -15.98625,-13.08987 -18.67875,-17.92137 l 0,0"
       style="fill:#000000;fill-opacity:1;fill-rule:nonzero;stroke:none"
       id="path502"
       inkscape:connector-curvature="0" />
    <path
       d="m 124.8421,637.56108 c 0.4375,0.31125 1.04125,0.20875 1.3525,-0.22875 0.31,-0.435 0.2075,-1.0425 -0.2275,-1.3525 l -7.05375,-5.00875 c -0.43625,-0.31125 -1.0425,-0.20875 -1.35375,0.22875 -0.31,0.435 -0.2075,1.04125 0.23,1.3525 l 7.0525,5.00875 0,0"
       style="fill:#000000;fill-opacity:1;fill-rule:nonzero;stroke:none"
       id="path504"
       inkscape:connector-curvature="0" />
    <path
       d="m 123.4421,643.2237 c 0.50375,0.1865 1.06125,-0.0699 1.24875,-0.57125 0.1875,-0.502 -0.0712,-1.06112 -0.57125,-1.24762 l -8.10875,-3.0125 c -0.5025,-0.18625 -1.06125,0.0688 -1.24875,0.57125 -0.18625,0.50125 0.0675,1.06 0.57125,1.24625 l 8.10875,3.01387 0,0"
       style="fill:#000000;fill-opacity:1;fill-rule:nonzero;stroke:none"
       id="path506"
       inkscape:connector-curvature="0" />
    <path
       d="m 135.61085,629.51608 c 2.2925,-0.30375 4.5875,-0.095 6.7825,0.63 3.845,1.2725 6.98125,3.98875 9.185,7.34375 2.5075,3.81737 3.77375,8.36087 3.9725,12.89937 0.24125,5.48925 -1.07125,11.09138 -3.90625,15.8115 -2.54,4.22613 -6.36,7.78475 -11.13375,9.274 -0.87625,0.27338 -1.775,0.47213 -2.68375,0.59325 -2.29125,0.30275 -4.58625,0.0952 -6.78125,-0.63137 -3.84625,-1.272 -6.9825,-3.98775 -9.18625,-7.34375 -2.505,-3.81538 -3.7725,-8.36038 -3.97125,-12.89888 -0.24125,-5.48825 1.07,-11.09137 3.9075,-15.81037 2.53875,-4.2275 6.36,-7.78625 11.1325,-9.27375 0.875,-0.27375 1.7725,-0.47375 2.6825,-0.59375 l 0,0"
       style="fill:#000000;fill-opacity:1;fill-rule:evenodd;stroke:none"
       id="path508"
       inkscape:connector-curvature="0" />
    <path
       d="m 135.9521,630.88733 c 9.5525,-1.26375 17.72125,7.39 18.24375,19.32762 0.52375,11.937 -6.7975,22.63863 -16.34875,23.90238 -9.5525,1.26312 -17.72125,-7.39025 -18.24375,-19.32775 -0.52375,-11.937 6.79625,-22.6385 16.34875,-23.90225 l 0,0"
       style="fill:#cccccc;fill-opacity:1;fill-rule:evenodd;stroke:none"
       id="path510"
       inkscape:connector-curvature="0" />
    <path
       d="m 136.26835,632.06983 c 8.8525,-1.17 16.42375,6.84875 16.90625,17.91175 0.48625,11.06287 -6.2975,20.98137 -15.15125,22.15175 -8.8525,1.171 -16.42125,-6.84913 -16.90625,-17.912 -0.485,-11.0625 6.29875,-20.98025 15.15125,-22.1515 l 0,0"
       style="fill:#ffffff;fill-opacity:1;fill-rule:evenodd;stroke:none"
       id="path512"
       inkscape:connector-curvature="0" />
    <path
       d="m 140.6746,647.48245 c -0.20375,-0.0267 -0.405,-0.0351 -0.6025,-0.0267 0.38125,0.559 0.5975,1.289 0.565,2.058 -0.0687,1.543 -1.12375,2.66113 -2.35875,2.49913 -0.7475,-0.0986 -1.39,-0.6485 -1.76625,-1.40725 -0.15,0.48675 -0.24375,1.01412 -0.26875,1.57075 -0.12625,2.89937 1.65125,5.49812 3.97125,5.80562 2.32125,0.30525 4.3025,-1.79587 4.43,-4.69475 0.12875,-2.898 -1.65,-5.498 -3.97,-5.80475 l 0,0"
       style="fill:#000000;fill-opacity:1;fill-rule:evenodd;stroke:none"
       id="path514"
       inkscape:connector-curvature="0" />
    <path
       d="m 189.8296,625.35858 c -0.4375,0.31 -1.0425,0.2075 -1.3525,-0.22875 -0.3125,-0.43625 -0.2075,-1.04375 0.2275,-1.3525 l 7.05375,-5.00875 c 0.43625,-0.31 1.0425,-0.20875 1.3525,0.2275 0.31125,0.4375 0.20875,1.0425 -0.22875,1.3525 l -7.0525,5.01 0,0"
       style="fill:#000000;fill-opacity:1;fill-rule:nonzero;stroke:none"
       id="path516"
       inkscape:connector-curvature="0" />
    <path
       d="m 191.2296,631.01983 c -0.50375,0.1875 -1.06125,-0.0675 -1.24875,-0.57 -0.1875,-0.5025 0.0687,-1.06125 0.57125,-1.24875 l 8.10875,-3.0125 c 0.5025,-0.18625 1.06125,0.0688 1.2475,0.57125 0.1875,0.5025 -0.0687,1.06 -0.57125,1.2475 l -8.1075,3.0125 0,0"
       style="fill:#000000;fill-opacity:1;fill-rule:nonzero;stroke:none"
       id="path518"
       inkscape:connector-curvature="0" />
    <path
       d="m 175.41835,616.63858 c -2.93375,-0.3875 -5.875,-0.12125 -8.68625,0.8075 -4.92625,1.63 -8.9425,5.10875 -11.765,9.40625 -3.21125,4.88875 -4.8325,10.70875 -5.0875,16.52125 -0.30875,7.03125 1.37125,14.20712 5.00375,20.253 3.2525,5.41262 8.14625,9.97162 14.26,11.87837 1.12125,0.35063 2.27125,0.606 3.4375,0.75925 2.935,0.38875 5.875,0.12263 8.68625,-0.80812 4.925,-1.62838 8.9425,-5.10838 11.76625,-9.40525 3.21,-4.88763 4.8325,-10.7095 5.08625,-16.522 0.30875,-7.03025 -1.37125,-14.2065 -5.00375,-20.2515 -3.2525,-5.41375 -8.14625,-9.9725 -14.26,-11.87875 -1.12125,-0.35 -2.27125,-0.605 -3.4375,-0.76 l 0,0"
       style="fill:#000000;fill-opacity:1;fill-rule:evenodd;stroke:none"
       id="path520"
       inkscape:connector-curvature="0" />
    <path
       d="m 175.00835,617.86108 c -12.4725,-1.64875 -23.13875,9.64875 -23.82125,25.23662 -0.6825,15.58738 8.875,29.56113 21.3475,31.21 12.4725,1.64888 23.1375,-9.64937 23.82125,-25.23587 0.68375,-15.587 -8.87375,-29.5595 -21.3475,-31.21075 l 0,0"
       style="fill:#cccccc;fill-opacity:1;fill-rule:evenodd;stroke:none"
       id="path522"
       inkscape:connector-curvature="0" />
    <path
       d="m 174.61585,618.95858 c -11.75875,-1.555 -21.81,9.09625 -22.45375,23.78662 -0.645,14.69388 8.36375,27.86375 20.12125,29.418 11.7575,1.55613 21.81,-9.09425 22.45375,-23.78662 0.64375,-14.693 -8.365,-27.863 -20.12125,-29.418 l 0,0"
       style="fill:#ffffff;fill-opacity:1;fill-rule:evenodd;stroke:none"
       id="path524"
       inkscape:connector-curvature="0" />
    <path
       d="m 179.99585,640.5357 c -0.19875,-0.0259 -0.39625,-0.0384 -0.59,-0.0371 0.6075,0.749 0.97,1.80325 0.92125,2.92438 -0.0875,2.0005 -1.4575,3.45162 -3.05875,3.23975 -1.13,-0.1495 -2.0725,-1.0845 -2.49875,-2.32325 -0.22125,0.66012 -0.3575,1.38187 -0.3925,2.14837 -0.16125,3.67675 2.09375,6.97275 5.035,7.36238 2.9425,0.38912 5.45875,-2.27688 5.62,-5.95213 0.16125,-3.67675 -2.09375,-6.97325 -5.03625,-7.36237 l 0,0"
       style="fill:#000000;fill-opacity:1;fill-rule:evenodd;stroke:none"
       id="path526"
       inkscape:connector-curvature="0" />
  </g>
</svg>
